<svg id="Layer_5" enable-background="new 0 0 64 64" height="512" viewBox="0 0 64 64" width="512" xmlns="http://www.w3.org/2000/svg"><g><g><g><path d="m20 43c2.22 0 4.16 1.21 5.2 3 .51.88.8 1.9.8 3s-.29 2.12-.8 3c-1.04 1.79-2.98 3-5.2 3-3.31 0-6-2.69-6-6 0-.4.04-.8.12-1.18l3.09 2.53c.51.42 1.15.65 1.81.65h.13c.79 0 1.5-.32 2.01-.84.52-.51.84-1.22.84-2.01 0-.74-.29-1.45-.8-1.98l-.17-.17-2.99-2.61.08-.09c.59-.19 1.22-.3 1.88-.3z" fill="#dfb28b"/></g><g><path d="m44.11 32.42c-.57-1.24-1.42-2.34-2.49-3.24-1.69-1.41-3.82-2.18-6.02-2.18h-1.6l-1 9-4-4-4 4-1-9h-2.65c-2.17 0-4.27.75-5.95 2.12l-7.09 5.8 4.79 4.17.1-.11 2.62-2.22c.87.36 1.68.85 2.41 1.43 1.12.89 2.63 1.12 3.96.57.89-.37 1.84-.61 2.83-.71.54-.05 1.1-.07 1.66-.03 4.51.3 8.1 3.7 9.07 7.98h3.25v-4h6v-5.59c0-1.4-.31-2.76-.89-3.99z" fill="#4fc1e9"/></g><g><path d="m26 27 3 5-4 4-1-9z" fill="#3bafda"/></g><g><path d="m34 27-1 9-4-4 3-5z" fill="#3bafda"/></g><g><path d="m8.36 43.1 5.76 4.72c-.08.38-.12.78-.12 1.18 0 3.31 2.69 6 6 6 2.22 0 4.16-1.21 5.2-3h10.55c-.97 4.28-4.56 7.68-9.07 7.98-1.6.1-3.12-.17-4.49-.74-1.33-.55-2.84-.32-3.96.57-1.68 1.35-3.8 2.16-6.12 2.19-5.62.06-10.11-4.71-10.11-10.33v-5.34c0-3.36 1.61-6.41 4.1-8.31-.07.32-.1.64-.1.97 0 1.69.9 3.26 2.36 4.11z" fill="#cf9e76"/></g><g><path d="m35.75 46h-10.55c-1.04-1.79-2.98-3-5.2-3-.66 0-1.29.11-1.88.3l-.08.09-4.94-4.3.1-.11 2.62-2.22c.87.36 1.68.85 2.41 1.43 1.12.89 2.63 1.12 3.96.57.89-.37 1.84-.61 2.83-.71.54-.05 1.1-.07 1.66-.03 4.51.3 8.1 3.7 9.07 7.98z" fill="#cf9e76"/></g><g><path d="m62 47v4c0 1.1-.9 2-2 2h-1-4-.53c-.31 0-.61-.07-.89-.21l-1.58-.79h-7.17-.01c-.14-.43-.39-.81-.7-1.12-.54-.54-1.29-.88-2.12-.88-1.31 0-2.42.83-2.82 2h-.01-3.42-10.55c.51-.88.8-1.9.8-3s-.29-2.12-.8-3h10.55 3.25 6 7l1.58-.79c.28-.14.58-.21.89-.21h.53 4 1c1.1 0 2 .9 2 2z" fill="#fcd770"/></g><g><path d="m39 42h6v4h-6z" fill="#f0d0b4"/></g><g><path d="m45 53v1c0 1.1-.9 2-2 2h-2c-1.1 0-2-.9-2-2v-1c0-.35.06-.69.18-1 .4-1.17 1.51-2 2.82-2 .83 0 1.58.34 2.12.88.31.31.56.69.7 1.12.12.31.18.65.18 1z" fill="#f0d0b4"/></g><g><path d="m21.2 46.17c.51.53.8 1.24.8 1.98 0 .79-.32 1.5-.84 2.01-.51.52-1.22.84-2.01.84h-.13c-.66 0-1.3-.23-1.81-.65l-3.09-2.53-5.76-4.72c-1.46-.85-2.36-2.42-2.36-4.11 0-.33.03-.65.1-.97l.01-.01c.27-1.28 1.06-2.41 2.2-3.09l4.79 4.17 4.94 4.3 2.99 2.61z" fill="#f0d0b4"/></g><g><path d="m37 13c.56 0 1.09.15 1.54.43.88.52 1.46 1.47 1.46 2.57 0 .83-.34 1.58-.88 2.12s-1.29.88-2.12.88h-1.08c.06-.32.08-.66.08-1v-3.59l-.26-1.3.26-.11z" fill="#f0d0b4"/></g><g><path d="m20.74 13c-.56 0-1.09.15-1.54.43-.88.52-1.46 1.47-1.46 2.57 0 .83.34 1.58.88 2.12s1.29.88 2.12.88h1.08c-.06-.32-.08-.66-.08-1v-3.59l.26-1.3-.26-.11z" fill="#f0d0b4"/></g><g><path d="m32 24.33v2.67l-3 5-3-5v-2.67-.01l3 .68c1.07 0 2.08-.24 2.99-.68z" fill="#f0d0b4"/></g><g><path d="m36 14.41v3.59c0 .34-.02.68-.08 1-.33 2.37-1.85 4.35-3.93 5.32-.91.44-1.92.68-2.99.68l-3-.68-1.95-1.37c-1.05-1.05-1.76-2.41-1.97-3.95-.06-.32-.08-.66-.08-1v-3.58c0-.91.36-1.78 1-2.42s1.51-1 2.41-1h7.18c.9 0 1.77.36 2.41 1 .32.32.57.7.74 1.11z" fill="#f0d0b4"/></g><g><path d="m37.45 5.84-7.03-3.2c-.94-.42-1.95-.64-2.98-.64-2.72 0-5.21 1.54-6.43 3.97l-.01.03c-1.66 0-3 1.34-3 3v.29c0 .47.11.93.32 1.34l1.34 2.69 2.485.114c.161-.538.452-1.031.855-1.434.64-.64 1.51-1 2.41-1h7.18c.9 0 1.77.36 2.41 1 .32.32.57.7.74 1.11l.26-.11h1c.56 0 1.09.15 1.54.43l.84-1.4c.41-.67.62-1.45.62-2.23 0-1.71-1-3.25-2.55-3.96z" fill="#656d78"/></g></g><g><circle cx="26" cy="15" r="1"/><circle cx="32" cy="15" r="1"/><path d="m32 19h-2c0 .552-.448 1-1 1s-1-.448-1-1h-2c0 1.654 1.346 3 3 3s3-1.346 3-3z"/><path d="m60 44v-2h-2v2h-2v-2h-2v2.055c-.301.048-.597.125-.869.261l-1.367.684h-5.764l.001-8.594c0-3.098-1.365-6.012-3.745-7.995-1.866-1.555-4.232-2.411-6.66-2.411h-2.598v-1.082c1.828-1.061 3.195-2.823 3.737-4.918h.263c2.206 0 4-1.794 4-4 0-1.091-.441-2.079-1.152-2.802l.392-.653c.498-.83.761-1.78.761-2.748 0-2.09-1.229-3.999-3.132-4.864l-7.036-3.198c-1.072-.488-2.212-.735-3.389-.735-2.935 0-5.592 1.533-7.064 4.048-1.912.3-3.379 1.958-3.379 3.952v.292c0 .618.146 1.237.423 1.789l.959 1.918c-.84.734-1.383 1.8-1.383 3.001 0 2.206 1.794 4 4 4h.263c.542 2.095 1.91 3.857 3.739 4.919v1.081h-3.646c-2.393 0-4.73.834-6.584 2.348l-7.037 5.75c-1.239.766-2.127 1.979-2.514 3.355-2.642 2.155-4.219 5.439-4.219 8.88v5.334c0 3.052 1.242 6.031 3.408 8.173 2.063 2.041 4.755 3.16 7.594 3.16.039 0 .078-.001.118-.001 2.472-.026 4.8-.858 6.733-2.406.84-.673 1.97-.837 2.948-.431 1.569.654 3.235.929 4.941.813 4.527-.302 8.437-3.537 9.769-7.976h1.489v1c0 1.654 1.346 3 3 3h2c1.654 0 3-1.346 3-3v-1h5.764l1.367.684c.272.136.568.213.869.261v2.056h2v-2h2v2h2v-2c1.654 0 3-1.346 3-3v-4c0-1.654-1.346-3-3-3zm-20-1h4v2h-4zm.976-13.052c1.923 1.602 3.025 3.956 3.025 6.458l-.001 4.594h-4v-4h-2v8h-1.488c-1.332-4.438-5.242-7.674-9.769-7.976-.453-.03-.902-.028-1.349-.004l3.606-3.606 4.764 4.764 1.131-10.178h.7c1.963 0 3.873.691 5.381 1.948zm-20.976 12.052c-.605 0-1.196.097-1.774.249l-3.611-3.155 1.352-1.144c.576.286 1.13.614 1.636 1.019 1.41 1.131 3.313 1.407 4.968.716 1.28-.533 2.641-.756 4.039-.663 3.499.232 6.547 2.63 7.791 5.979h-8.665c-1.267-1.812-3.364-3.001-5.736-3.001zm-3.421 9.129c.687.561 1.553.871 2.44.871h.132c2.123 0 3.85-1.727 3.85-3.85 0-1.003-.383-1.952-1.079-2.673l-1.661-1.451c2.633.139 4.739 2.306 4.739 4.974 0 2.757-2.243 5-5 5-2.445 0-4.478-1.767-4.908-4.09zm8.857-23.129 2.306 3.845-1.978 1.977-.647-5.822zm7.128 0h.318l-.646 5.821-1.978-1.977zm4.434-10v-3.587c0-.14-.027-.275-.04-.413h.04c1.103 0 2 .897 2 2s-.897 2-2 2zm-17.788-7.814c-.138-.275-.211-.585-.211-.894v-.292c0-1.103.897-2 2-2l.632-.026.276-.553c1.055-2.11 3.176-3.421 5.535-3.421.89 0 1.751.187 2.561.555l7.036 3.198c1.19.541 1.96 1.736 1.96 3.044 0 .605-.165 1.201-.476 1.72l-.399.665c-.359-.107-.732-.182-1.126-.182h-.721c-.165-.251-.354-.489-.571-.707-.821-.821-1.959-1.293-3.121-1.293h-7.172c-1.179 0-2.287.459-3.121 1.292-.216.215-.404.454-.569.708h-.725c-.287 0-.565.033-.835.091zm-.212 5.814c0-1.103.897-2 2-2h.042c-.013.139-.042.275-.042.415v3.585c-1.102 0-2-.897-2-2zm4 2v-3.585c0-.636.258-1.259.708-1.708.456-.456 1.063-.707 1.707-.707h7.172c.636 0 1.258.258 1.706.707.456.456.707 1.062.707 1.706v3.587c0 3.309-2.691 6-6 6s-6-2.691-6-6zm6 8c.692 0 1.359-.097 2-.263v.986l-1.998 3.333-2-3.336v-.983c.64.166 1.307.263 1.998.263zm-12.963 3.896c1.497-1.222 3.386-1.896 5.319-1.896h1.751l1.019 9.166c-.792.138-1.568.358-2.321.672-.98.406-2.108.243-2.949-.431-.392-.315-.806-.599-1.236-.855l2.079-1.76-1.293-1.527-5.313 4.497-3.229-2.822zm-7.779 6.297 12.06 10.501.166.172c.333.347.518.803.518 1.284 0 1.02-.83 1.85-1.85 1.85h-.132c-.426 0-.843-.149-1.173-.419l-8.853-7.255-.13-.09c-1.148-.671-1.862-1.914-1.862-3.243.001-1.073.469-2.095 1.256-2.8zm18.354 22.786c-1.398.093-2.759-.13-4.04-.663-1.655-.69-3.558-.415-4.967.716-1.581 1.266-3.484 1.945-5.505 1.967-.032 0-.064.001-.096.001-2.309 0-4.503-.915-6.188-2.582-1.789-1.769-2.814-4.23-2.814-6.751v-5.334c0-2.215.785-4.355 2.161-6.033.278 1.178.922 2.243 1.839 3.038v11.662h2v-10.083l4.045 3.315c-.028.256-.045.512-.045.768 0 3.859 3.141 7 7 7 2.372 0 4.469-1.189 5.736-3h8.665c-1.244 3.35-4.292 5.747-7.791 5.979zm17.39-4.979c0 .552-.448 1-1 1h-2c-.552 0-1-.448-1-1v-1c0-1.103.897-2 2-2s2 .897 2 2zm17-3c0 .552-.448 1-1 1h-5.528c-.154 0-.309-.036-.446-.105l-1.79-.895h-6.793c-.694-1.19-1.97-2-3.444-2s-2.75.81-3.444 2h-11.85c.19-.634.295-1.305.295-2s-.105-1.366-.295-2h11.295 8 6.236l1.789-.895c.138-.069.292-.105.447-.105h5.528c.552 0 1 .448 1 1z"/></g></g></svg>