<svg id="Capa_1" enable-background="new 0 0 512 512" height="512" viewBox="0 0 512 512" width="512" xmlns="http://www.w3.org/2000/svg"><g><g><path clip-rule="evenodd" d="m255.816 80.692c14.202-14.769 29.537-45.808 3.061-73.191h-246.376c-2.761 0-5 2.239-5 5v281.215h23.613 51.08v-56.324l-21.034-21.062c-8.135-8.107-8.135-21.402 0-29.509 8.107-8.135 21.402-8.135 29.537 0l13.72 13.691 13.72-13.691c8.107-8.135 21.402-8.135 29.509 0 8.135 8.107 8.135 21.402 0 29.509l-21.033 21.061v56.324h23.046c47.991 0 82.97-38.013 84.699-85.578.227-5.981-.51-6.69 2.806-7.002 72.369-6.35 72.369-95.329 18.709-110.665-3.657-1.445-4.706-6.377-.057-9.778z" fill="#b3e59f" fill-rule="evenodd"/></g><g><path clip-rule="evenodd" d="m175.113 504.5h-84.671v-99.808c5.839-2.268 12.217-3.515 18.879-3.515 6.803 0 13.295 1.304 19.247 3.685 7.257-7.597 17.49-12.331 28.828-12.331 21.713 0 39.373 17.376 39.827 38.976 10.687 7.143 17.745 19.332 17.745 33.137 0 22.026-17.858 39.856-39.855 39.856z" fill="#b3e59f" fill-rule="evenodd"/></g><g><path clip-rule="evenodd" d="m82.194 504.5h22.224 22.195c0-56.466 0-210.671 0-267.109l21.033-21.061c8.135-8.107 8.135-21.402 0-29.509-8.107-8.135-21.402-8.135-29.509 0l-13.72 13.691-13.72-13.691c-8.135-8.135-21.43-8.135-29.537 0-8.135 8.107-8.135 21.402 0 29.509l21.033 21.061c.001 56.438.001 210.643.001 267.109z" fill="#be8282" fill-rule="evenodd"/></g><g><path clip-rule="evenodd" d="m476.125 431.933-38.466-12.841c-4.819-1.587-5.159-3.232-6.123-8.22l-2.551-13.209-7.087-36.68c-25.398 13.436-54.51 27.298-46.318 48.983l13.663 28.29c1.871 3.883 4.054 6.718 9.921 8.731l62.844 21.628 14.995-16.554z" fill="#c8c5c9" fill-rule="evenodd"/></g><g><path clip-rule="evenodd" d="m501.296 455.517c2.494-6.69 5.471-12.331-1.559-14.91l-23.613-8.674-14.117 36.68c-3.033 7.824-1.021 23.102 3.373 30.076h19.899z" fill="#9fd4fe" fill-rule="evenodd"/></g><g><path clip-rule="evenodd" d="m353.271 316.676v-31.606h-42.832c-1.049 0-1.162 0-1.757-.879l-14.598-21.232c-12.529-18.198-39.402-.794-26.816 17.065l21.203 30.019c4.791 6.605 5.187 6.633 13.011 6.633z" fill="#ffece4" fill-rule="evenodd"/></g><g><path clip-rule="evenodd" d="m424.732 279.542-15.846-22.819c-25.682-18.794-33.307-7.909-41.811-1.276l-23.698 29.622v31.606 44.391l35.546 19.729 42.973-19.814 8.731-44.05-.709-4.507z" fill="#9fd4fe" fill-rule="evenodd"/></g><g><path clip-rule="evenodd" d="m430.969 232.43c-18.794-82.148-51.052-28.29-82.772-43.285-4.592 7.228-7.257 15.817-7.257 25.03 0 17.858 11.537 33.392 26.135 41.272 1.02.567 2.041 1.077 3.09 1.531 5.669 2.608 11.707 4.054 17.632 4.054 8.192 0 15.165-1.559 21.09-4.309 10.431-4.875 17.518-13.578 22.082-24.293z" fill="#ffece4" fill-rule="evenodd"/></g><g><path clip-rule="evenodd" d="m430.969 232.43c11.424-34.611 3.6-62.107-24.095-71.887-16.016-5.669-33.052 3.628-61.54-10.573-8.22 16.328-6.094 30.586 2.863 39.175 8.929 8.561 39.912-.142 39.912 19.928 0 32.683 42.86 23.357 42.86 23.357z" fill="#6f6571" fill-rule="evenodd"/></g><g><path clip-rule="evenodd" d="m476.125 296.437c-6.265-2.154-15.987-5.528-25.71-8.787-9.723-3.288-19.446-6.435-25.682-8.107-7.455-1.984-15.364 2.126-17.887 9.553-2.636 7.71 1.502 16.299 9.241 18.822l13.833 4.507 25.625 8.334c1.276.454.907 1.446.907 2.92v24.832c0 8.164 6.52 14.882 14.683 14.91 8.107.028 15.024-6.605 15.024-14.797v-25.257-13.493c-.227-6.067-4.28-11.481-10.034-13.437z" fill="#ffece4" fill-rule="evenodd"/></g><g><path clip-rule="evenodd" d="m421.898 360.982-78.52.085-24.832 28.857c-4.394 5.074-8.22 10.885-8.22 18.992v11.395 49.521l18.765 11.849 18.935-11.849-.142-33.959c0-9.723-1.559-9.524 6.718-14.173l20.976-11.735c11.964-6.86 42.039-19.985 46.32-48.983z" fill="#eceaec" fill-rule="evenodd"/></g><g><path clip-rule="evenodd" d="m348.027 469.832h-37.701c-8.107 0-27.836 8.759-30.359 28.857h68.117z" fill="#9fd4fe" fill-rule="evenodd"/></g><g><path clip-rule="evenodd" d="m331.331 429.864.113 39.969h16.583l-.142-33.959c0-9.723-1.559-9.524 6.718-14.173l20.976-11.735c11.962-6.86 42.038-19.984 46.318-48.983h-17.887c-8.022 27.638-43.058 35.376-65.962 48.189-8.276 4.648-6.717 10.94-6.717 20.692z" fill="#dad8db" fill-rule="evenodd"/></g><g><path clip-rule="evenodd" d="m471.051 445.596 5.754 2.098 17.858 6.548c5.131 1.899 4.932 5.414 3.487 9.78l3.146-8.504c2.494-6.69 5.471-12.331-1.559-14.91l-23.613-8.674-5.244 13.578z" fill="#72bffc" fill-rule="evenodd"/></g><g><path clip-rule="evenodd" d="m375.58 409.964 8.135 16.866c7.143-4.025 18.085-8.362 28.46-18.397 1.899-1.843 1.729-.765 2.211 1.786l2.296 11.764c.964 4.989 1.304 6.605 6.094 8.22l47.565 16.753 5.783-15.024-38.466-12.841c-4.819-1.587-5.159-3.232-6.123-8.22l-2.551-13.209-1.928-10.035-5.159-26.646c-4.28 28.999-34.355 42.124-46.317 48.983z" fill="#b6b1b7" fill-rule="evenodd"/></g><g><path clip-rule="evenodd" d="m331.473 480.207.028 18.482h16.583l-.057-28.29v-.567h-16.583z" fill="#72bffc" fill-rule="evenodd"/></g><g><path clip-rule="evenodd" d="m387.797 261.032c8.192 0 15.165-1.559 21.09-4.309 10.431-4.876 17.518-13.578 22.082-24.293 0 0-9.213 1.984-19.077.879-3.317 6.718-7.767 12.444-13.55 16.753-2.154 1.587-4.45 3.005-6.973 4.167-5.074 2.381-10.942 3.855-17.66 4.224 4.62 1.644 9.382 2.579 14.088 2.579z" fill="#ffddce" fill-rule="evenodd"/></g><g><path clip-rule="evenodd" d="m411.891 233.309c9.865 1.106 19.077-.879 19.077-.879 11.424-34.611 3.6-62.107-24.095-71.887-5.244-1.871-10.602-2.126-16.441-2.126 17.802 6.718 27.099 20.976 28.035 39.827.113 2.608.085 5.301-.113 8.079-.51 7.37-2.154 15.279-4.904 23.613-.481 1.162-.992 2.268-1.559 3.373z" fill="#5d5360" fill-rule="evenodd"/></g><g><path clip-rule="evenodd" d="m462.008 307.18c5.811 1.843 9.808 7.398 10.035 13.465l-.567 42.775c7.965-.17 14.684-6.718 14.684-14.797v-25.257-13.493c-.227-6.066-4.28-11.48-10.035-13.436-6.265-2.154-15.987-5.528-25.71-8.787-9.723-3.288-19.446-6.435-25.682-8.107-7.455-1.984-15.364 2.126-17.887 9.553-.085.227-.17.482-.227.709z" fill="#ffddce" fill-rule="evenodd"/></g><g><path clip-rule="evenodd" d="m288.471 310.043c4.791 6.605 5.187 6.633 13.011 6.633h41.896v-13.238h-36.482c-7.824 0-8.22-.028-13.039-6.633l-21.175-30.019c-1.814-2.551-2.806-5.102-3.146-7.569-5.556 4.649-7.994 12.671-2.268 20.806z" fill="#ffddce" fill-rule="evenodd"/></g><g><path clip-rule="evenodd" d="m102.716 293.715v107.858 102.927h1.701 22.195v-100.375-110.41-56.324l21.033-21.061c8.135-8.107 8.135-21.402 0-29.509-5.613-5.641-13.72-7.37-20.863-5.216 4.932 8.05 3.912 18.765-3.005 25.71l-21.061 21.033z" fill="#af7373" fill-rule="evenodd"/></g><g><path clip-rule="evenodd" d="m126.612 409.483c21.288.482 38.438 17.688 38.891 38.976 10.687 7.143 17.745 19.332 17.745 33.137 0 8.532-2.693 16.413-7.228 22.876 21.572-.454 38.948-18.113 38.948-39.827 0-13.805-7.058-25.994-17.745-33.137-.454-21.6-18.113-38.976-39.827-38.976-11.339 0-21.572 4.734-28.828 12.331-.652-.255-1.304-.51-1.956-.737z" fill="#95d6a4" fill-rule="evenodd"/></g><g><path clip-rule="evenodd" d="m149.658 293.715c47.991 0 82.97-38.013 84.699-85.578.227-5.981-.51-6.69 2.806-7.002 72.369-6.35 72.369-95.329 18.709-110.665-3.657-1.446-4.706-6.378-.057-9.78 14.202-14.769 29.537-45.808 3.061-73.191h-50.825c19.276 24.661 5.698 51.421-6.917 64.517-4.394 3.231-3.402 7.88.057 9.241 50.684 14.513 61.767 96.775-6.605 102.756-3.118.283-2.409.964-2.636 6.605-1.304 35.858-7.002 74.381-65.339 78.435v24.661h23.047z" fill="#95d6a4" fill-rule="evenodd"/></g><g><path clip-rule="evenodd" d="m403.841 360.982h.17 17.887l8.731-44.05-.709-4.507-13.833-4.507c-2.098-.68-3.94-1.814-5.443-3.26z" fill="#72bffc" fill-rule="evenodd"/></g><g><path clip-rule="evenodd" d="m393.608 260.749 14.23 26.079c3.231-5.953 10.233-9.071 16.894-7.285l-15.846-22.819c-4.478 2.069-9.524 3.458-15.278 4.025z" fill="#72bffc" fill-rule="evenodd"/></g><g><path d="m114.804 69.373c3.691.793 7.129 1.149 10.324 1.149 20.063 0 30.519-14.078 33.444-22.68 1.334-3.921-.765-8.182-4.686-9.515-3.923-1.334-8.182.765-9.516 4.687-.225.66-5.745 16.139-26.417 11.692-4.05-.871-8.037 1.707-8.908 5.758-.869 4.051 1.709 8.039 5.759 8.909z"/><path d="m151.403 127.472c-4.047-.865-8.037 1.709-8.907 5.759-.869 4.05 1.709 8.038 5.759 8.907 3.694.793 7.133 1.149 10.331 1.149 20.078 0 30.54-14.079 33.465-22.68 1.334-3.921-.765-8.182-4.687-9.515-3.919-1.334-8.181.765-9.515 4.687-.225.662-5.749 16.136-26.446 11.693z"/><path d="m37.172 129.668c3.68.786 7.109 1.14 10.296 1.14 20.096 0 30.565-14.074 33.491-22.669 1.335-3.921-.761-8.182-4.683-9.517-3.918-1.338-8.181.761-9.517 4.683-.226.659-5.743 16.124-26.455 11.693-4.041-.862-8.035 1.717-8.902 5.769-.864 4.05 1.719 8.035 5.77 8.901z"/><path d="m217.492 259.529c1.207.724 2.535 1.067 3.848 1.067 2.549 0 5.035-1.301 6.441-3.646 8.579-14.32 13.446-31.105 14.073-48.528.003-.087.006-.173.009-.258 16.808-2.223 31.125-8.93 41.593-19.525 10.055-10.178 16.369-23.897 17.779-38.633 2.825-29.521-13.009-55.71-38.897-65.304 15.256-16.67 31.815-51.509 1.933-82.414-2.878-2.979-7.627-3.06-10.605-.179-2.979 2.879-3.059 7.627-.179 10.604 27.07 27.997 1.814 57.54-2.714 62.396-4.015 3.221-6.046 7.81-5.455 12.411.569 4.444 3.558 8.247 7.797 9.925.229.09.462.169.698.236 24.986 7.141 34.357 31.388 32.49 50.893-1.899 19.853-15.979 42.122-49.839 45.094-9.44.887-9.514 8.396-9.546 11.603-.007.715-.015 1.565-.054 2.595-.537 14.913-4.669 29.22-11.95 41.373-2.13 3.555-.975 8.161 2.578 10.29z"/><path d="m504.499 497h-10.592s14.856-40.025 15.075-40.593c1.863-4.842 3.977-10.331 1.511-15.766-1.472-3.245-4.221-5.626-8.17-7.075 0 0-62.784-21.758-62.95-21.821-.153-.638-9.834-50.747-9.834-50.747l7.6-38.342 11.813 3.844v22.01c0 12.314 9.94 22.368 22.157 22.41h.076c5.894 0 11.687-2.407 15.906-6.61 4.235-4.221 6.569-9.792 6.569-15.686v-38.749c0-.094-.002-.187-.005-.28-.343-9.159-6.417-17.3-15.091-20.249l-3.971-1.367c-6.198-2.137-39.639-13.328-45.242-14.934l-9.702-13.972c7.761-5.563 13.875-13.498 18.221-23.702.062-.144.109-.291.16-.436.018-.052.044-.099.061-.152.012-.035.021-.07.033-.105.005-.018.011-.035.017-.053 6.142-18.69 7.04-35.888 2.592-49.741-4.819-15.006-15.664-25.867-31.355-31.408-7.46-2.641-14.661-2.583-22.277-2.516-11.105.088-22.595.188-38.42-7.699-3.695-1.845-8.187-.351-10.045 3.339-8.174 16.236-7.905 32.044.444 43.476-3.683 7.436-5.61 15.665-5.61 24.102 0 16.515 8.726 32.635 22.567 43.067l-16.263 20.328h-26.541l-12.97-18.863c-5.255-7.631-13.201-11.592-21.828-10.881-8.561.713-16.38 6.071-19.921 13.652-3.417 7.316-2.461 15.651 2.629 22.873l21.257 30.097c6.135 8.456 8.631 9.728 19.083 9.728h34.396v34.109l-23.007 26.735c-4.678 5.404-10.045 13.003-10.045 23.895v54.605c-6.259 1.795-13.582 5.666-19.559 11.886-5.845 6.082-9.44 13.444-10.62 21.594h-63.001c7.944-8.473 12.823-19.852 12.823-32.355 0-14.552-6.658-28.164-17.984-37.12-2.451-23.759-22.818-42.493-47.088-42.493-8.322 0-16.273 2.122-23.285 6.096v-89.912h15.546c20.166 0 39.05-6.22 54.612-17.986 3.304-2.498 3.957-7.202 1.459-10.506-2.497-3.303-7.202-3.958-10.506-1.459-12.936 9.781-28.692 14.951-45.565 14.951h-15.546v-45.721l18.828-18.853c5.358-5.339 8.307-12.466 8.307-20.067s-2.949-14.728-8.288-20.048c-5.339-5.357-12.466-8.308-20.068-8.308s-14.728 2.95-20.051 8.293l-8.422 8.404-8.416-8.398c-5.352-5.353-12.483-8.299-20.082-8.299-.008 0-.018 0-.025 0-7.595.006-14.714 2.957-20.028 8.289-5.358 5.339-8.308 12.466-8.308 20.066 0 7.602 2.95 14.728 8.295 20.055l18.84 18.865v45.721h-67.194c-4.143 0-7.5 3.357-7.5 7.5s3.358 7.5 7.5 7.5h67.193v78.504c0 4.143 3.358 7.5 7.5 7.5 4.143 0 7.5-3.357 7.5-7.5v-142.331c0-1.987-.789-3.894-2.193-5.3l-21.046-21.074c-2.512-2.503-3.896-5.856-3.896-9.442 0-3.585 1.384-6.938 3.914-9.46 2.501-2.509 5.851-3.893 9.434-3.896h.012c3.592 0 6.957 1.387 9.481 3.91l13.72 13.691c2.928 2.922 7.668 2.922 10.596 0l13.735-13.706c2.503-2.512 5.856-3.896 9.441-3.896s6.939 1.383 9.461 3.914c2.512 2.503 3.895 5.856 3.895 9.441 0 3.586-1.383 6.939-3.907 9.455l-21.034 21.061c-1.404 1.406-2.193 3.312-2.193 5.3v259.611h-29.42v-82.641c0-4.143-3.358-7.5-7.5-7.5-4.143 0-7.5 3.357-7.5 7.5v82.641h-55.599c-4.143 0-7.5 3.357-7.5 7.5s3.358 7.5 7.5 7.5h485.405c4.143 0 7.5-3.357 7.5-7.5s-3.358-7.5-7.501-7.5zm-329.386 0h-41.001v-87.077c6.154-6.378 14.415-9.892 23.285-9.892 17.459 0 31.962 14.19 32.328 31.634.051 2.448 1.294 4.717 3.33 6.078 9.026 6.033 14.413 16.09 14.413 26.901.001 17.841-14.514 32.356-32.355 32.356zm180.349-67.109c.946-.611 16.827-9.493 16.827-9.493l10.196 21.111c2.304 4.782 5.624 9.614 14.238 12.567l56.613 19.484c-.616 6.676.021 15.79 2.913 23.44h-100.656s-.126-66.581-.131-67.109zm110.844 6.67-8.7 22.605-56.01-19.277c-3.709-1.271-4.47-2.552-5.6-4.897l-10.567-21.878c9.81-5.347 24.024-13.556 33.734-26.737l5.007 25.917c1.04 5.383 2.116 10.949 11.113 13.912zm-50.564-83.099-64.863.094v-65.855l18.367-22.958c6.084 2.479 12.451 3.789 18.552 3.789 6.539 0 12.657-.912 18.283-2.701l5.433 7.824c-5.365 2.49-9.74 7.053-11.765 13.015-1.921 5.619-1.492 11.908 1.177 17.253 2.669 5.346 7.228 9.297 12.836 11.126.001 0 .003.001.004.001l9.008 2.931zm53.962-51.304 4.007 1.38c2.771.942 4.791 3.604 4.948 6.502v38.583c0 1.878-.766 3.676-2.156 5.062-1.427 1.422-3.363 2.235-5.317 2.235-.009 0-.017 0-.024 0-3.976-.014-7.209-3.338-7.209-7.41v-24.831c0-.149.01-.289.017-.419.346-6.617-4.02-8.895-5.913-9.568-.063-.022-.126-.044-.189-.064l-39.454-12.84c-1.761-.574-3.205-1.84-4.066-3.564-.9-1.804-1.044-3.828-.398-5.714 1.235-3.638 5.122-5.714 8.843-4.722 5.246 1.406 40.74 13.243 46.911 15.37zm-120.415-142.199c15.526 6.187 27.803 6.089 37.936 5.998 6.797-.056 12.176-.104 17.151 1.659 29.609 10.455 25.489 41.459 20.788 58.149-7.014.808-18.368.857-24.611-4.193-3.327-2.691-4.944-6.78-4.944-12.499 0-19.129-18.615-21.284-29.737-22.572-4.342-.503-10.899-1.262-12.478-2.764-.003-.003-.007-.006-.01-.009-5.843-5.606-7.232-14.049-4.095-23.769zm-.82 54.216c0-5.204 1.03-10.283 2.969-14.994 3.962 1.203 8.375 1.718 12.708 2.22 14.192 1.644 16.462 3.275 16.462 7.672 0 12.97 5.739 20.316 10.554 24.196 7.552 6.086 17.541 7.784 25.845 7.921-3.22 3.798-6.986 6.724-11.28 8.73-5.162 2.396-11.195 3.611-17.931 3.611-4.696 0-9.709-1.164-14.526-3.381-12.345-5.613-24.801-18.915-24.801-35.975zm-46.987 95.001c-1.641 0-3.476 0-4.28-.104-.657-.674-1.982-2.498-2.605-3.356l-21.198-30.013c-1.985-2.816-2.421-5.467-1.295-7.879 1.265-2.708 4.379-4.784 7.573-5.051 3.216-.256 6.046 1.27 8.226 4.435l14.571 21.19c2.491 3.676 5.425 4.171 7.966 4.171h25.438v16.606h-34.396zm16.344 99.739c0-5.562 2.555-9.652 6.391-14.083.005-.006.01-.012.015-.018l22.591-26.252 65.307-.071c-6.788 16.772-24.53 26.387-35.754 32.47-1.685.913-25.446 14.199-25.446 14.199-9.099 5.11-10.908 7.611-10.636 16.672 0 0 .091 2.603.091 4.071l.11 26.428h-22.67v-53.416zm-29.937 88.085c.991-4.192 3.061-7.941 6.193-11.201 5.75-5.983 13.417-8.467 16.244-8.467h30.219l.048 19.668zm186.875 0c-.512 0-1.465 0-2.804-1.943-4.219-6.122-4.472-19.769-3.234-23.017l11.746-30.52 15.839 5.818c-.341 1.118-18.402 49.662-18.402 49.662z"/></g></g></svg>