<?xml version="1.0"?>
<svg xmlns="http://www.w3.org/2000/svg" id="filled_outline" data-name="filled outline" viewBox="0 0 512 512" width="512" height="512"><path d="M392,392v88h56a40,40,0,0,0,40-40V392Z" style="fill:#f78e00"/><path d="M488,120V440a40.00182,40.00182,0,0,0-40-40H64a40.00174,40.00174,0,0,1-40-40V80H448A40.00186,40.00186,0,0,1,488,120Z" style="fill:#ffb401"/><path d="M440,200a136.19577,136.19577,0,1,1-.24023-8Q440,195.97494,440,200Z" style="fill:#8be0e8"/><path d="M24,360V72A40,40,0,0,1,64,32H96V320H64a40,40,0,0,0-40,40Z" style="fill:#ffcc4d"/><path d="M431.3999,247.7A136.37339,136.37339,0,0,1,345.23,329.64L320,296l16-16V248h40l24-16Z" style="fill:#5bd2de"/><path d="M439.75977,192H384l-32-24V136l24-16V84.6A135.91751,135.91751,0,0,1,439.75977,192Z" style="fill:#5bd2de"/><path d="M320,168v24H288v24l-24,24H173.98A136.20691,136.20691,0,0,1,216.3501,96H248l16,24h32Z" style="fill:#5bd2de"/><path d="M144,264V264a57.765,57.765,0,0,0,8.23192,29.71985L192,360l39.76808-66.28013A57.765,57.765,0,0,0,240,264V264a48,48,0,0,0-48-48H192A48,48,0,0,0,144,264Z" style="fill:#f5714f"/><circle cx="192" cy="264" r="16" style="fill:#ef5e3b"/><path d="M160,200h16a127.72282,127.72282,0,0,1,43.436-96h24.28271l13.625,20.4375A7.99943,7.99943,0,0,0,264,128h27.05566L312,169.88867V184H288a8.00008,8.00008,0,0,0-8,8v20.68652l-21.65723,21.65674,11.31446,11.31348,24-24A8.00035,8.00035,0,0,0,296,216V200h24a8.00008,8.00008,0,0,0,8-8V168a7.99583,7.99583,0,0,0-.84473-3.57764l-24-48A7.99979,7.99979,0,0,0,296,112H268.28125l-13.625-20.4375A7.99943,7.99943,0,0,0,248,88h-5.90625A127.77155,127.77155,0,0,1,368,89.18274v26.536l-20.4375,13.625A7.99943,7.99943,0,0,0,344,136v32a7.99927,7.99927,0,0,0,3.2002,6.3999l32,24A7.9984,7.9984,0,0,0,384,200h48a127.59319,127.59319,0,0,1-5.28516,36.41321l-23.13672-11.56848a7.99726,7.99726,0,0,0-8.01562.499L373.57812,240H336a8.00008,8.00008,0,0,0-8,8v28.686l-13.65723,13.65722a8.00045,8.00045,0,0,0-.74316,10.45654l18.12549,24.167a128.228,128.228,0,0,1-87.95459-11.99219l-7.541,14.11133A144.27156,144.27156,0,0,0,304,344c79.40234,0,144-64.59814,144-144S383.40234,56,304,56,160,120.59814,160,200ZM348.12109,320.161l-17.55761-23.41052,11.09375-11.09375A8.00035,8.00035,0,0,0,344,280V256h32a7.99836,7.99836,0,0,0,4.4375-1.34375l20.1377-13.4248,20.584,10.29235A128.70877,128.70877,0,0,1,348.12109,320.161ZM431.002,184H386.667L360,164V140.28125l20.4375-13.625A7.99943,7.99943,0,0,0,384,120V100.1593A127.98128,127.98128,0,0,1,431.002,184Z"/><path d="M185.13965,364.11621a8.001,8.001,0,0,0,13.7207,0l39.76856-66.28076A65.78512,65.78512,0,0,0,248,264a56,56,0,0,0-112,0,65.78816,65.78816,0,0,0,9.37109,33.83594ZM192,224a40.04552,40.04552,0,0,1,40,40,49.77541,49.77541,0,0,1-7.0918,25.60352L192,344.45068,159.0918,289.604A49.77839,49.77839,0,0,1,152,264,40.04552,40.04552,0,0,1,192,224Z"/><path d="M192,288a24,24,0,1,0-24-24A24.02718,24.02718,0,0,0,192,288Zm0-32a8,8,0,1,1-8,8A8.00917,8.00917,0,0,1,192,256Z"/><path d="M448,72H408V88h40a32.03635,32.03635,0,0,1,32,32V404.26123A47.801,47.801,0,0,0,448,392H64a32,32,0,0,1,0-64h40a8.00008,8.00008,0,0,0,8-8V88h88V72H112V32a8.00008,8.00008,0,0,0-8-8H64A48.054,48.054,0,0,0,16,72V360a48.054,48.054,0,0,0,48,48H384v72a8.00008,8.00008,0,0,0,8,8h56a48.054,48.054,0,0,0,48-48V120A48.05468,48.05468,0,0,0,448,72ZM32,72A32.03635,32.03635,0,0,1,64,40H96V312H64a47.80823,47.80823,0,0,0-32,12.252ZM448,472H400V408h48a32,32,0,0,1,0,64Z"/><path d="M364.9502,347.9834l6.0996,14.792a177.10776,177.10776,0,0,0,67.043-48.77393l-12.18554-10.36914A161.03027,161.03027,0,0,1,364.9502,347.9834Z"/><path d="M458.79785,283.81494l-14.06445-7.62988a160.54614,160.54614,0,0,1-9.40723,15.23828l13.12305,9.15332A176.79529,176.79529,0,0,0,458.79785,283.81494Z"/><path d="M163.2666,123.81445l-14.06445-7.62988a174.75763,174.75763,0,0,0-18.01367,50.30029l15.71093,3.03028A158.74587,158.74587,0,0,1,163.2666,123.81445Z"/><path d="M128,200h16c0-5.08057.24121-10.21094.7168-15.24805l-15.92969-1.5039C128.26465,188.7832,128,194.41943,128,200Z"/></svg>
